<svg xmlns="http://www.w3.org/2000/svg" xmlns:xlink="http://www.w3.org/1999/xlink" viewBox="0 0 163.59 25.54"><defs><style>.cls-1{fill:#d2d2d2;}.cls-2{fill:url(#linear-gradient);}</style><linearGradient id="linear-gradient" x1="61.81" y1="20.21" x2="79.71" y2="1.67" gradientUnits="userSpaceOnUse"><stop offset="0" stop-color="#f6a45a"/><stop offset="0.07" stop-color="#f69954"/><stop offset="0.2" stop-color="#f67b43"/><stop offset="0.36" stop-color="#f74b27"/><stop offset="0.43" stop-color="#f7351b"/><stop offset="1" stop-color="#d72b1e"/></linearGradient></defs><title>Asset 4</title><g id="Layer_2" data-name="Layer 2"><g id="Layer_1-2" data-name="Layer 1"><path class="cls-1" d="M0,19.37V6.62A6.51,6.51,0,0,1,1.46,2.07,5.53,5.53,0,0,1,5.76.47a5.82,5.82,0,0,1,4.38,1.6,6.27,6.27,0,0,1,1.55,4.55V9H7.84V6.38c0-1.6-.66-2.41-2-2.41s-2,.81-2,2.41V19.61c0,1.6.66,2.39,2,2.39s2-.79,2-2.39v-3.5h3.85v3.26a6.27,6.27,0,0,1-1.55,4.55,5.82,5.82,0,0,1-4.38,1.6,5.53,5.53,0,0,1-4.3-1.6A6.51,6.51,0,0,1,0,19.37Z"/><path class="cls-1" d="M13.73,25.25,17.63.74h5.94l3.9,24.51H23.62L23,20.81H18.24l-.67,4.44Zm5-7.78h3.71L20.59,5.14Z"/><path class="cls-1" d="M29.28,19.37v-1.5h3.95v1.74c0,1.6.62,2.39,1.85,2.39s1.84-.79,1.84-2.39a4.52,4.52,0,0,0-.41-1.93,6.19,6.19,0,0,0-1.06-1.63A19.49,19.49,0,0,0,34,14.59c-.53-.48-1.06-1-1.62-1.52a13.79,13.79,0,0,1-1.49-1.68,7.7,7.7,0,0,1-1.1-2.12,8.13,8.13,0,0,1-.42-2.65A6.2,6.2,0,0,1,31,2.07,5.62,5.62,0,0,1,35.19.47a5.22,5.22,0,0,1,4.1,1.6,6.55,6.55,0,0,1,1.44,4.55v.79H37.09v-1c0-1.6-.64-2.41-1.94-2.41a1.78,1.78,0,0,0-1.44.57,2.87,2.87,0,0,0-.48,1.84,4.5,4.5,0,0,0,.42,1.93,6.25,6.25,0,0,0,1.08,1.63A20.3,20.3,0,0,0,36.2,11.4c.54.48,1.08,1,1.61,1.52a14.4,14.4,0,0,1,1.46,1.68,7.67,7.67,0,0,1,1.08,2.12,8.13,8.13,0,0,1,.42,2.65,6.47,6.47,0,0,1-1.47,4.55,5.34,5.34,0,0,1-4.15,1.6,5.73,5.73,0,0,1-4.27-1.6A6.13,6.13,0,0,1,29.28,19.37Z"/><path class="cls-1" d="M43.87,25.25V.74H54.36V4.25H47.71v6.83H53v3.49H47.71v7.18h6.65v3.5Z"/><path class="cls-1" d="M84.67,25.2V.69h5.81a5.87,5.87,0,0,1,4.33,1.39,5.79,5.79,0,0,1,1.38,4.25V7.2c0,2.51-.83,4.15-2.5,4.94,1.92.74,2.87,2.49,2.87,5.25v2a5.85,5.85,0,0,1-1.48,4.32,5.94,5.94,0,0,1-4.36,1.49Zm3.84-14.53H90a2.36,2.36,0,0,0,1.74-.59,2.77,2.77,0,0,0,.58-2V6.72a3.19,3.19,0,0,0-.46-1.92,1.78,1.78,0,0,0-1.5-.61H88.51Zm0,11h2.21a1.94,1.94,0,0,0,1.5-.54,2.79,2.79,0,0,0,.5-1.87V17.15a3.6,3.6,0,0,0-.57-2.33,2.46,2.46,0,0,0-1.91-.65H88.51Z"/><path class="cls-1" d="M98.77,25.2,102.67.69h5.94l3.9,24.51h-3.84L108,20.75h-4.72l-.66,4.45Zm5-7.78h3.71L105.63,5.09Z"/><path class="cls-1" d="M112.46,4.19V.69h11.92v3.5h-4v21H116.5v-21Z"/><path class="cls-1" d="M125.83,4.19V.69h11.91v3.5h-4v21h-3.84v-21Z"/><path class="cls-1" d="M140.33,25.2V.69h3.84v21h6.34V25.2Z"/><path class="cls-1" d="M153.1,25.2V.69h10.49v3.5h-6.65V11h5.28v3.49h-5.28v7.17h6.65V25.2Z"/><path class="cls-2" d="M68.24,0A2,2,0,0,0,67,.62l-.76.73c-.63.6-1.42,1.36-1.9,1.85a13.65,13.65,0,0,0-3.16,6.46,44.8,44.8,0,0,0-.7,8.83,1,1,0,0,0,1,1,1,1,0,0,0,.72-.3,1,1,0,0,0,.32-.76,28.16,28.16,0,0,1,1.14-8.31c.85-2.67,2.23-3.37,2.45-3.46h1.8l-.4,1.55H78L76.93,3.08h.43a1.54,1.54,0,1,0,0-3.08ZM62.51,1.55A4.61,4.61,0,0,0,60,10.06c0-.21.08-.42.13-.61s.07-.31.11-.48a3.58,3.58,0,0,1,2.23-6.39,3.72,3.72,0,0,1,.88.11l.19-.21.61-.61A4.82,4.82,0,0,0,62.51,1.55ZM66.4,7.69a4.91,4.91,0,0,0-1.63,2.5,4.52,4.52,0,0,0,1.69-1.67,1.47,1.47,0,0,1,0-.36l.12-.47Zm.4,1.56a10.94,10.94,0,0,0-2.13,5.12h4.55a20.68,20.68,0,0,1,.88-5.12Zm4.38,0a18.17,18.17,0,0,0-.93,5.12h5a18.53,18.53,0,0,0-.93-5.12Zm4.24,0a19.8,19.8,0,0,1,.88,5.12h4.55a10.46,10.46,0,0,0-2.11-5.12ZM64.59,15.4c0,.17,0,.34,0,.51a11.35,11.35,0,0,0,.57,3.59h4.35a22,22,0,0,1-.31-3.59c0-.17,0-.34,0-.51Zm5.62,0c0,.17,0,.34,0,.51a22.77,22.77,0,0,0,.3,3.59H75a21.64,21.64,0,0,0,.3-3.59c0-.17,0-.34,0-.51Zm6.12,0c0,.17,0,.34,0,.51a23.08,23.08,0,0,1-.3,3.59h4.34A11.35,11.35,0,0,0,81,15.91c0-.17,0-.34,0-.51Zm-10.8,5.13a8.43,8.43,0,0,0,6,5,13.83,13.83,0,0,1-1.93-5Zm5.16,0c.52,2.4,1.35,4.23,2.07,4.87.72-.64,1.55-2.47,2.07-4.87Zm5.18,0a13.83,13.83,0,0,1-1.92,5,8.43,8.43,0,0,0,6-5Z"/></g></g></svg>